<svg width="602" height="547" viewBox="0 0 602 547" fill="none" xmlns="http://www.w3.org/2000/svg">
<path d="M378.302 16.1182L420.208 56.2167L462.326 282.259H67.2539L378.302 16.1182Z" fill="#FFCF2D"/>
<path d="M420.568 55.9016L378.535 15.6771L385.565 8.43417C395.92 -2.23077 414.575 -1.01312 425.333 9.23195C436.09 19.498 437.974 37.9937 427.62 48.6586L420.568 55.9016Z" fill="white"/>
<path d="M420.59 56.7836L377.646 15.6984L385.12 7.9936C390.16 2.78709 397.339 0.0788719 405.343 0.351794C413.009 0.624716 420.462 3.68984 425.799 8.77038C431.135 13.8509 434.502 21.1358 435.052 28.7357C435.624 36.6504 433.147 43.8723 428.107 49.0788L420.59 56.7836ZM379.424 15.6564L420.547 54.9991L427.154 48.2181C431.961 43.2845 434.29 36.3985 433.761 28.8406C433.231 21.5347 430.013 14.5647 424.888 9.69412C419.764 4.82351 412.628 1.88436 405.28 1.63243C397.656 1.35951 390.817 3.94177 386.031 8.87535L379.424 15.6564Z" fill="#FFCF2D"/>
<path d="M427.599 49.2891C427.43 49.2891 427.281 49.2261 427.154 49.1211L385.1 8.89665C384.845 8.64472 384.845 8.26683 385.078 8.0149C385.332 7.76297 385.735 7.76297 385.968 7.9939L428.022 48.2184C428.277 48.4703 428.277 48.8482 428.044 49.1001C427.938 49.2261 427.768 49.2891 427.599 49.2891Z" fill="#FFCF2D"/>
<path d="M508.828 281.167C508.743 281.167 508.659 281.146 508.574 281.104C508.256 280.957 508.108 280.58 508.256 280.265L567.23 149.85L451.929 10.7019V10.6809C449.748 7.74171 446.551 5.85225 442.909 5.3274C439.266 4.80255 435.645 5.74728 432.723 7.97264L428.022 11.5416C427.747 11.7516 427.345 11.7096 427.133 11.4157C426.921 11.1427 426.963 10.7438 427.26 10.5339L431.961 6.96493C435.158 4.55062 439.118 3.52192 443.099 4.08875C447.08 4.65559 450.574 6.713 452.946 9.92508L568.713 149.661L568.543 150.018L509.4 280.789C509.294 281.02 509.061 281.167 508.828 281.167Z" fill="#3FB1B5"/>
<path d="M566.087 156.883C569.665 156.883 572.566 154.007 572.566 150.459C572.566 146.911 569.665 144.035 566.087 144.035C562.508 144.035 559.607 146.911 559.607 150.459C559.607 154.007 562.508 156.883 566.087 156.883Z" fill="white"/>
<path d="M566.087 157.513C562.169 157.513 558.972 154.343 558.972 150.459C558.972 146.575 562.169 143.405 566.087 143.405C570.004 143.405 573.202 146.575 573.202 150.459C573.202 154.343 570.004 157.513 566.087 157.513ZM566.087 144.665C562.868 144.665 560.242 147.268 560.242 150.459C560.242 153.65 562.868 156.254 566.087 156.254C569.305 156.254 571.931 153.65 571.931 150.459C571.931 147.268 569.305 144.665 566.087 144.665Z" fill="#FFCF2D"/>
<path d="M492.396 265.926H523.969C533.053 265.926 540.401 273.232 540.401 282.217V282.679H475.942V282.217C475.964 273.232 483.311 265.926 492.396 265.926Z" fill="white"/>
<path d="M541.036 283.309H475.307V282.217C475.328 272.896 482.994 265.296 492.396 265.296H523.969C533.371 265.296 541.036 272.896 541.036 282.217V283.309ZM476.578 282.049H539.766C539.681 273.484 532.629 266.556 523.969 266.556H492.396C483.756 266.556 476.684 273.484 476.578 282.049Z" fill="#FFCF2D"/>
<path d="M339.444 235.002H139.568C132.051 235.002 125.974 228.977 125.974 221.524V82.9215C125.974 75.4686 132.051 69.4434 139.568 69.4434H339.444C346.962 69.4434 353.039 75.4686 353.039 82.9215V221.503C353.06 228.956 346.962 235.002 339.444 235.002Z" fill="white"/>
<path d="M339.444 235.632H139.568C131.712 235.632 125.338 229.312 125.338 221.524V82.9214C125.338 75.1327 131.712 68.8135 139.568 68.8135H339.444C347.301 68.8135 353.674 75.1327 353.674 82.9214V221.503C353.696 225.261 352.213 228.809 349.524 231.475C346.835 234.162 343.256 235.632 339.444 235.632ZM139.568 70.0731C132.432 70.0731 126.609 75.8465 126.609 82.9214V221.524C126.609 228.599 132.432 234.372 139.568 234.372H339.444C342.917 234.372 346.178 233.028 348.635 230.593C351.07 228.158 352.425 224.925 352.404 221.503V82.9214C352.404 75.8465 346.581 70.0731 339.444 70.0731H139.568Z" fill="#3FB1B5"/>
<path d="M339.572 222.112H141.623C138.679 222.112 136.308 219.739 136.308 216.842V84.2441C136.308 81.3259 138.7 78.9746 141.623 78.9746H339.572C342.515 78.9746 344.887 81.3469 344.887 84.2441V216.821C344.908 219.739 342.515 222.112 339.572 222.112Z" fill="#66B0F0"/>
<path d="M339.572 222.741H141.623C138.34 222.741 135.672 220.096 135.672 216.842V84.244C135.672 80.99 138.34 78.3447 141.623 78.3447H339.572C342.854 78.3447 345.522 80.99 345.522 84.244V216.821C345.543 218.396 344.929 219.886 343.807 220.999C342.663 222.111 341.181 222.741 339.572 222.741ZM141.623 79.6044C139.039 79.6044 136.943 81.6828 136.943 84.244V216.842C136.943 219.403 139.039 221.482 141.623 221.482H339.572C340.821 221.482 342.007 220.999 342.896 220.117C343.786 219.235 344.252 218.081 344.252 216.842V84.244C344.252 81.6828 342.155 79.6044 339.572 79.6044H141.623Z" fill="#66B0F0"/>
<path d="M148.716 91.9914H145.582C144.206 91.9914 143.083 90.8787 143.083 89.5141V86.407C143.083 85.0424 144.206 83.9297 145.582 83.9297H148.716C150.093 83.9297 151.215 85.0424 151.215 86.407V89.5141C151.194 90.8997 150.093 91.9914 148.716 91.9914ZM145.582 85.1893C144.905 85.1893 144.354 85.7352 144.354 86.407V89.5141C144.354 90.1859 144.905 90.7318 145.582 90.7318H148.716C149.394 90.7318 149.923 90.1859 149.944 89.4931V86.407C149.944 85.7352 149.394 85.1893 148.716 85.1893H145.582Z" fill="white"/>
<path d="M162.967 91.9914H159.833C158.457 91.9914 157.334 90.8787 157.334 89.5141V86.407C157.334 85.0424 158.457 83.9297 159.833 83.9297H162.967C164.344 83.9297 165.466 85.0424 165.466 86.407V89.5141C165.466 90.8787 164.344 91.9914 162.967 91.9914ZM159.833 85.1893C159.156 85.1893 158.605 85.7352 158.605 86.407V89.5141C158.605 90.1859 159.156 90.7318 159.833 90.7318H162.967C163.645 90.7318 164.195 90.1859 164.195 89.5141V86.407C164.195 85.7352 163.645 85.1893 162.967 85.1893H159.833Z" fill="white"/>
<path d="M177.219 91.9914H174.085C172.708 91.9914 171.586 90.8787 171.586 89.5141V86.407C171.586 85.0424 172.708 83.9297 174.085 83.9297H177.219C178.595 83.9297 179.717 85.0424 179.717 86.407V89.5141C179.717 90.8787 178.595 91.9914 177.219 91.9914ZM174.085 85.1893C173.407 85.1893 172.856 85.7352 172.856 86.407V89.5141C172.856 90.1859 173.407 90.7318 174.085 90.7318H177.219C177.917 90.7318 178.447 90.2069 178.447 89.5141V86.407C178.447 85.7352 177.896 85.1893 177.219 85.1893H174.085Z" fill="white"/>
<path d="M281.699 282.259H204.112L219.337 235.002H266.453L281.699 282.259Z" fill="white"/>
<path d="M282.567 282.889H203.243L218.871 234.372H266.918L282.567 282.889ZM204.98 281.63H280.83L265.986 235.632H219.802L204.98 281.63Z" fill="#3FB1B5"/>
<path d="M210.21 263.344L219.337 235.002H266.452L210.21 263.344Z" fill="#3FB1B5"/>
<path d="M328.052 123.083H290.338C286.463 123.083 283.308 119.955 283.308 116.113V91.97C283.308 88.1281 286.463 85 290.338 85H328.052C331.927 85 335.082 88.1281 335.082 91.97V116.113C335.082 119.955 331.927 123.083 328.052 123.083ZM290.338 86.2596C287.162 86.2596 284.579 88.8209 284.579 91.97V116.113C284.579 119.262 287.162 121.823 290.338 121.823H328.052C331.228 121.823 333.812 119.262 333.812 116.113V91.97C333.812 88.8209 331.228 86.2596 328.052 86.2596H290.338Z" fill="white"/>
<path d="M323.499 94.8671H294.722C294.362 94.8671 294.086 94.5941 294.086 94.2372C294.086 93.8803 294.362 93.6074 294.722 93.6074H323.499C323.859 93.6074 324.134 93.8803 324.134 94.2372C324.134 94.5941 323.859 94.8671 323.499 94.8671Z" fill="white"/>
<path d="M323.499 101.376H294.722C294.362 101.376 294.086 101.103 294.086 100.746C294.086 100.389 294.362 100.116 294.722 100.116H323.499C323.859 100.116 324.134 100.389 324.134 100.746C324.134 101.103 323.859 101.376 323.499 101.376Z" fill="white"/>
<path d="M323.499 107.884H294.722C294.362 107.884 294.086 107.611 294.086 107.254C294.086 106.897 294.362 106.624 294.722 106.624H323.499C323.859 106.624 324.134 106.897 324.134 107.254C324.134 107.611 323.859 107.884 323.499 107.884Z" fill="white"/>
<path d="M323.499 114.391H294.722C294.362 114.391 294.086 114.119 294.086 113.762C294.086 113.405 294.362 113.132 294.722 113.132H323.499C323.859 113.132 324.134 113.405 324.134 113.762C324.134 114.119 323.859 114.391 323.499 114.391Z" fill="white"/>
<path d="M338.47 222.111H188.569L179.781 234.602C169.849 248.71 148.864 248.92 138.658 235.001L85.126 162.005C87.3706 164.776 97.6407 161.69 107.424 155.308C117.355 148.821 123.771 140.654 121.76 137.631L158.88 184.531L170.252 164.629C173.365 159.36 178.531 155.581 184.545 154.195L223.233 146.07H256.584L293.345 154.111C299.74 155.56 305.161 159.696 308.232 165.427L338.47 222.111Z" fill="white"/>
<path d="M159.071 245.939C150.707 245.939 143.083 242.097 138.149 235.358L84.6177 162.362L85.6341 161.606C87.434 163.811 96.9842 161.376 107.085 154.783C111.786 151.718 115.873 148.17 118.583 144.769C121.04 141.704 122.035 139.164 121.23 137.967L122.268 137.232L158.796 183.398L169.701 164.315C172.899 158.898 178.256 154.993 184.397 153.587L223.169 145.441H256.648L256.711 145.462L293.472 153.503C300.037 154.993 305.627 159.234 308.782 165.133L339.508 222.741H188.886L180.289 234.959C175.44 241.845 167.795 245.855 159.304 245.939C159.24 245.939 159.156 245.939 159.071 245.939ZM87.074 163.58L139.187 234.624C143.93 241.09 151.257 244.764 159.325 244.68C167.393 244.596 174.656 240.796 179.272 234.246L188.251 221.481H337.433L307.681 165.721C304.695 160.137 299.422 156.127 293.218 154.72L256.521 146.701H223.296L184.672 154.804C178.87 156.148 173.809 159.843 170.802 164.944L158.965 185.666L122.67 139.815C122.374 141.389 121.336 143.363 119.557 145.567C116.762 149.052 112.569 152.705 107.763 155.833C101.05 160.2 92.982 163.643 88.1752 163.643C87.794 163.643 87.4128 163.622 87.074 163.58Z" fill="#3FB1B5"/>
<path d="M297.327 221.88C297.094 221.88 296.882 221.754 296.755 221.544L286.104 200.697C285.955 200.382 286.061 200.004 286.379 199.857C286.696 199.71 287.078 199.815 287.226 200.13L297.877 220.977C298.025 221.292 297.919 221.67 297.602 221.817C297.517 221.859 297.432 221.88 297.327 221.88Z" fill="#3FB1B5"/>
<path d="M187.722 223.833C187.616 223.833 187.531 223.812 187.425 223.77C187.108 223.623 186.981 223.224 187.15 222.93L197.695 202.293C197.844 201.978 198.246 201.852 198.542 202.02C198.86 202.167 198.987 202.566 198.818 202.86L188.272 223.497C188.166 223.707 187.955 223.833 187.722 223.833Z" fill="#3FB1B5"/>
<path d="M168.6 197.59C168.409 197.59 168.219 197.506 168.092 197.338L143.93 166.708C143.719 166.435 143.761 166.036 144.036 165.826C144.311 165.616 144.714 165.658 144.926 165.931L169.087 196.561C169.299 196.834 169.256 197.233 168.981 197.443C168.875 197.548 168.727 197.59 168.6 197.59Z" fill="#3FB1B5"/>
<path d="M252.879 167.779L243.583 156.547C243.35 156.274 243.392 155.875 243.668 155.665C243.943 155.434 244.345 155.476 244.557 155.749L253.048 165.973L272.466 149.64C272.742 149.409 273.144 149.451 273.356 149.703C273.589 149.976 273.546 150.375 273.292 150.585L252.879 167.779Z" fill="#3FB1B5"/>
<path d="M228.739 168.178L206.356 150.606C206.081 150.396 206.038 149.997 206.25 149.724C206.462 149.451 206.864 149.409 207.139 149.619L228.506 166.393L236.743 155.959C236.955 155.686 237.357 155.644 237.632 155.854C237.908 156.064 237.95 156.463 237.738 156.736L228.739 168.178Z" fill="#3FB1B5"/>
<path d="M95.3114 173.342C93.2997 173.342 92.2409 172.734 91.7116 172.062C91.4998 171.789 91.5422 171.39 91.8174 171.18C92.0927 170.97 92.495 171.012 92.7068 171.285C93.5962 172.398 96.4972 172.335 100.457 171.159C104.671 169.899 109.753 167.422 114.369 164.378C119.092 161.271 123.2 157.681 125.931 154.238C128.409 151.131 129.404 148.569 128.599 147.352C128.409 147.058 128.494 146.68 128.79 146.47C129.086 146.281 129.468 146.365 129.679 146.659C130.823 148.401 129.849 151.362 126.948 155.015C124.131 158.542 119.917 162.237 115.089 165.407C110.304 168.556 105.243 171.033 100.838 172.356C98.4454 173.069 96.6455 173.342 95.3114 173.342Z" fill="#3FB1B5"/>
<path d="M122.48 152.956C120.807 152.956 119.452 151.613 119.452 149.954C119.452 148.296 120.807 146.952 122.48 146.952C124.153 146.952 125.508 148.296 125.508 149.954C125.508 151.613 124.153 152.956 122.48 152.956ZM122.48 148.212C121.506 148.212 120.722 148.989 120.722 149.954C120.722 150.92 121.506 151.697 122.48 151.697C123.454 151.697 124.237 150.92 124.237 149.954C124.237 148.989 123.454 148.212 122.48 148.212Z" fill="#3FB1B5"/>
<path d="M240.639 167.863C238.966 167.863 237.611 166.519 237.611 164.861C237.611 163.202 238.966 161.858 240.639 161.858C242.312 161.858 243.667 163.202 243.667 164.861C243.667 166.519 242.312 167.863 240.639 167.863ZM240.639 163.118C239.665 163.118 238.881 163.895 238.881 164.861C238.881 165.826 239.665 166.603 240.639 166.603C241.613 166.603 242.396 165.826 242.396 164.861C242.396 163.895 241.613 163.118 240.639 163.118Z" fill="#3FB1B5"/>
<path d="M240.639 186.967C238.966 186.967 237.611 185.624 237.611 183.965C237.611 182.307 238.966 180.963 240.639 180.963C242.312 180.963 243.667 182.307 243.667 183.965C243.667 185.624 242.312 186.967 240.639 186.967ZM240.639 182.223C239.665 182.223 238.881 182.999 238.881 183.965C238.881 184.931 239.665 185.708 240.639 185.708C241.613 185.708 242.396 184.931 242.396 183.965C242.396 182.999 241.613 182.223 240.639 182.223Z" fill="#3FB1B5"/>
<path d="M179.019 235.61L188.569 222.111V235.61H179.019Z" fill="#3FB1B5"/>
<path d="M107.191 154.679C97.4075 161.061 87.1373 164.147 84.8927 161.376C84.8504 161.334 84.8292 161.292 84.7868 161.229C84.321 160.536 84.3633 159.591 84.7868 158.437C86.2479 154.637 92.283 148.758 99.9485 143.762C106.047 139.773 112.061 137.002 116.233 136.141C118.647 135.658 120.446 135.805 121.315 136.729L121.526 136.981C123.517 140.004 117.122 148.192 107.191 154.679Z" fill="#FE5244"/>
<path d="M107.191 154.679C101.622 158.311 95.883 160.893 91.5632 161.901L72.2299 134.86C69.5406 131.081 70.43 125.854 74.2628 123.188L91.6691 111.053L81.8013 94.405C80.3613 91.9907 81.1872 88.8626 83.6435 87.456C84.4482 86.9941 85.3164 86.7842 86.1846 86.7842C87.8575 86.7842 89.5092 87.603 90.4832 89.1145L121.336 136.687L121.548 137.023C123.517 140.004 117.122 148.192 107.191 154.679Z" fill="#E57281"/>
<path d="M97.1322 135.176C96.8569 135.176 96.5816 135.155 96.3063 135.092C95.2476 134.882 94.337 134.252 93.7653 133.37L83.5798 118.254C83.3893 117.961 83.4739 117.583 83.7492 117.373C84.0457 117.184 84.4269 117.268 84.6386 117.541L94.824 132.656C95.2264 133.265 95.8405 133.685 96.5604 133.832C97.2804 133.979 98.0216 133.832 98.6356 133.433L101.028 131.88C102.299 131.061 102.659 129.381 101.854 128.122L91.076 111.557C90.8854 111.263 90.9701 110.886 91.2665 110.697C91.563 110.508 91.9442 110.592 92.1348 110.886L102.913 127.45C104.099 129.297 103.548 131.754 101.706 132.929L99.3132 134.483C98.678 134.945 97.9157 135.176 97.1322 135.176Z" fill="#9A3B82"/>
<path d="M89.234 140.192C87.9211 140.192 86.6294 139.563 85.8459 138.408C85.6553 138.114 85.74 137.736 86.0365 137.526C86.3329 137.337 86.7141 137.421 86.9258 137.715C87.7517 138.954 89.4457 139.311 90.7163 138.513L92.8974 137.148C93.5115 136.749 93.9561 136.141 94.1044 135.406C94.2526 134.671 94.1256 133.936 93.7232 133.327C93.5326 133.033 93.6173 132.656 93.9138 132.446C94.2102 132.257 94.5914 132.341 94.8032 132.635C95.3961 133.537 95.6078 134.608 95.3749 135.679C95.142 136.728 94.5067 137.631 93.5961 138.219L91.4151 139.584C90.7375 139.982 89.9751 140.192 89.234 140.192Z" fill="#9A3B82"/>
<path d="M81.4839 144.896C80.2133 144.896 78.964 144.308 78.1805 143.195L72.3996 135.113C72.1878 134.819 72.2725 134.441 72.5478 134.231C72.8231 134.021 73.2254 134.105 73.4372 134.378L79.2181 142.46C80.0863 143.657 81.7168 143.972 82.945 143.195L82.9873 143.174L84.999 142.062C85.6343 141.663 86.0578 141.054 86.2272 140.34C86.3966 139.605 86.2484 138.87 85.846 138.241L75.8723 123.545C75.6818 123.251 75.7453 122.873 76.0418 122.663C76.3382 122.474 76.7194 122.537 76.9311 122.831L86.9048 137.527C87.5189 138.451 87.7095 139.542 87.4766 140.592C87.2436 141.642 86.6084 142.544 85.6766 143.111L85.6554 143.132L83.6438 144.245C82.945 144.707 82.2038 144.896 81.4839 144.896Z" fill="#9A3B82"/>
<path d="M114.136 125.603L109.075 117.814C107.402 115.232 103.908 114.518 101.346 116.239L88.7891 124.679C88.7891 124.679 92.4313 131.166 101.283 126.022L104.247 130.704C98.191 134.504 96.4546 142.503 100.393 148.444L114.136 125.603Z" fill="#E57281"/>
<path d="M100.393 149.074C100.181 149.074 99.9908 148.969 99.8637 148.78C97.8732 145.757 97.1745 142.146 97.9579 138.619C98.6779 135.302 100.605 132.446 103.379 130.515L101.071 126.862C98.0215 128.52 95.2475 129.003 92.7911 128.353C89.6783 127.513 88.2807 125.077 88.2172 124.993L87.9419 124.49L100.308 115.924C101.706 115 103.358 114.664 104.988 115C106.619 115.336 108.016 116.281 108.927 117.688L113.988 125.476C114.178 125.77 114.094 126.148 113.797 126.337C113.501 126.526 113.12 126.442 112.929 126.148L107.868 118.359C107.148 117.247 106.047 116.491 104.734 116.239C103.442 115.966 102.108 116.239 101.028 116.974L89.6571 124.847C90.1653 125.497 91.3088 126.673 93.1299 127.156C95.3745 127.765 98.0003 127.198 100.944 125.497L101.473 125.182L105.094 130.914L104.565 131.25C101.791 132.992 99.8637 135.721 99.1649 138.912C98.4662 142.104 99.0802 145.379 100.901 148.108C101.092 148.402 101.007 148.78 100.711 148.99C100.626 149.032 100.52 149.074 100.393 149.074Z" fill="#9A3B82"/>
<path d="M107.191 154.679C101.622 158.311 95.883 160.893 91.5632 161.901L86.7563 155.183C89.4456 151.698 94.2525 147.499 99.9487 143.783C106.047 139.794 112.061 137.023 116.233 136.162C118.647 135.68 120.447 135.827 121.315 136.75L121.527 137.002C121.548 137.044 121.569 137.065 121.59 137.107C121.611 137.128 121.611 137.149 121.632 137.191C121.654 137.233 121.675 137.254 121.696 137.296C123.136 140.508 116.804 148.381 107.191 154.679Z" fill="#9A3B82"/>
<path d="M256.563 127.597V146.05C256.563 151.404 249.067 155.729 239.856 155.729C230.623 155.729 223.148 151.404 223.148 146.05V127.597H256.563Z" fill="#E57281"/>
<path d="M228.039 152.894C225.011 151.152 223.126 148.717 223.126 146.05V127.597H256.563V132.719C256.563 138.031 253.302 142.796 248.347 144.791L228.039 152.894Z" fill="#9A3B82"/>
<path d="M265.88 126.505V126.82C265.88 130.011 263.275 132.593 260.057 132.593H256.224C254.932 137.758 250.231 141.6 244.598 141.6H235.112C229.5 141.6 224.778 137.779 223.508 132.593H219.675C216.456 132.593 213.852 130.011 213.852 126.82V126.505C213.852 123.314 216.456 120.732 219.675 120.732H223.148V116.176C223.148 111.305 226.769 107.274 231.491 106.603C232.528 108.324 235.662 112.439 242.057 112.208C245.064 112.103 247.86 111.536 250.168 110.864C252.942 110.067 255.716 111.746 256.414 114.37C256.52 114.958 256.584 115.546 256.584 116.155V120.711H260.057C263.254 120.711 265.88 123.314 265.88 126.505Z" fill="#E57281"/>
<path d="M259.231 120.711H256.562V115.651C256.562 115.21 256.499 114.769 256.393 114.371C255.694 111.746 252.92 110.067 250.146 110.865C247.838 111.536 245.064 112.103 242.036 112.208C235.641 112.439 232.507 108.324 231.469 106.603C226.747 107.275 223.126 111.305 223.126 116.176V120.732H219.802C219.802 120.732 215.99 107.065 218.849 103.202C221.665 99.4018 225.053 101.06 225.053 101.06C225.053 101.06 223.02 89.6816 234.37 89.8915C245.699 90.1015 260.438 103.139 261.518 105.532C263.212 109.206 259.231 120.711 259.231 120.711Z" fill="#9A3B82"/>
<path d="M257.855 128.101C257.558 128.101 257.325 127.87 257.325 127.576C257.325 125.056 259.4 122.999 261.941 122.999C262.238 122.999 262.471 123.23 262.471 123.524C262.471 123.818 262.238 124.049 261.941 124.049C259.972 124.049 258.384 125.623 258.384 127.576C258.384 127.87 258.151 128.101 257.855 128.101Z" fill="#9A3B82"/>
<path d="M221.898 128.101C221.602 128.101 221.369 127.87 221.369 127.576C221.369 125.623 219.78 124.049 217.811 124.049C217.515 124.049 217.282 123.818 217.282 123.524C217.282 123.23 217.515 122.999 217.811 122.999C220.352 122.999 222.427 125.056 222.427 127.576C222.427 127.87 222.194 128.101 221.898 128.101Z" fill="#9A3B82"/>
<path d="M251.226 116.701C251.121 116.701 251.015 116.659 250.909 116.596C250.803 116.512 248.071 114.601 244.577 116.05C244.302 116.155 244.006 116.029 243.878 115.756C243.773 115.483 243.9 115.189 244.175 115.063C248.241 113.405 251.396 115.63 251.523 115.735C251.756 115.903 251.819 116.239 251.629 116.47C251.544 116.617 251.396 116.701 251.226 116.701Z" fill="#9A3B82"/>
<path d="M228.272 116.701C228.103 116.701 227.955 116.617 227.849 116.491C227.679 116.261 227.722 115.925 227.955 115.757C228.082 115.652 231.258 113.426 235.303 115.085C235.578 115.19 235.705 115.505 235.599 115.778C235.493 116.051 235.175 116.177 234.9 116.072C231.385 114.623 228.611 116.596 228.569 116.617C228.484 116.659 228.378 116.701 228.272 116.701Z" fill="#9A3B82"/>
<path d="M241.189 134.378C240.363 134.378 239.41 134.21 238.33 133.811C238.055 133.706 237.907 133.412 238.013 133.14C238.119 132.867 238.415 132.72 238.69 132.825C243.137 134.462 244.598 131.565 244.662 131.439C244.789 131.187 245.107 131.061 245.361 131.187C245.615 131.313 245.742 131.628 245.615 131.88C245.594 131.922 244.387 134.378 241.189 134.378Z" fill="#9A3B82"/>
<path d="M239.686 130.431C239.199 130.431 238.67 130.431 238.225 130.389C237.928 130.368 237.717 130.116 237.738 129.822C237.759 129.528 238.013 129.318 238.31 129.339C239.559 129.423 241.486 129.339 241.507 129.339C241.804 129.318 242.036 129.549 242.058 129.843C242.079 130.137 241.846 130.368 241.549 130.389C241.507 130.389 240.639 130.431 239.686 130.431Z" fill="#9A3B82"/>
<path d="M247.817 124.93C248.402 124.93 248.876 124.141 248.876 123.167C248.876 122.193 248.402 121.403 247.817 121.403C247.232 121.403 246.758 122.193 246.758 123.167C246.758 124.141 247.232 124.93 247.817 124.93Z" fill="#9A3B82"/>
<path d="M232.634 124.93C233.219 124.93 233.693 124.141 233.693 123.167C233.693 122.193 233.219 121.403 232.634 121.403C232.049 121.403 231.575 122.193 231.575 123.167C231.575 124.141 232.049 124.93 232.634 124.93Z" fill="#9A3B82"/>
<path d="M235.154 129.633H228.484C226.917 129.633 225.625 128.352 225.625 126.799V120.186C225.625 118.632 226.917 117.352 228.484 117.352H235.154C236.721 117.352 238.013 118.632 238.013 120.186V126.799C238.034 127.534 237.737 128.247 237.208 128.772C236.657 129.339 235.937 129.633 235.154 129.633ZM228.484 118.401C227.488 118.401 226.684 119.199 226.684 120.186V126.799C226.684 127.786 227.488 128.583 228.484 128.583H235.154C235.641 128.583 236.107 128.394 236.446 128.037C236.785 127.702 236.954 127.261 236.954 126.799V120.186C236.954 119.199 236.149 118.401 235.154 118.401H228.484Z" fill="white"/>
<path d="M251.48 129.633H244.81C243.243 129.633 241.951 128.352 241.951 126.799V120.186C241.951 118.632 243.243 117.352 244.81 117.352H251.48C253.047 117.352 254.339 118.632 254.339 120.186V126.799C254.339 128.352 253.047 129.633 251.48 129.633ZM244.81 118.401C243.815 118.401 243.01 119.199 243.01 120.186V126.799C243.01 127.786 243.815 128.583 244.81 128.583H251.48C252.475 128.583 253.28 127.786 253.28 126.799V120.186C253.28 119.199 252.475 118.401 251.48 118.401H244.81Z" fill="white"/>
<path d="M242.481 121.719H237.504V122.768H242.481V121.719Z" fill="white"/>
<path d="M253.239 214.596H230.094C227.637 214.596 225.647 212.623 225.647 210.187V197.99C225.647 195.554 227.637 193.581 230.094 193.581H253.239C255.695 193.581 257.686 195.554 257.686 197.99V210.187C257.686 212.623 255.695 214.596 253.239 214.596ZM230.094 194.841C228.336 194.841 226.918 196.247 226.918 197.99V210.187C226.918 211.93 228.336 213.336 230.094 213.336H253.239C254.996 213.336 256.415 211.93 256.415 210.187V197.99C256.415 196.247 254.996 194.841 253.239 194.841H230.094Z" fill="#66B0F0"/>
<path d="M242.248 209.054H234.413C233.164 209.054 232.147 208.046 232.147 206.808V201.37C232.147 200.132 233.164 199.124 234.413 199.124H242.248C243.498 199.124 244.514 200.132 244.514 201.37V206.808C244.514 208.046 243.498 209.054 242.248 209.054Z" fill="#66B0F0"/>
<path d="M249.872 208.906L247.458 207.311C246.801 206.87 246.399 206.114 246.399 205.296V202.902C246.399 202.083 246.801 201.328 247.458 200.887L249.872 199.291C250.443 198.913 251.185 199.333 251.185 200.047V208.172C251.206 208.865 250.443 209.284 249.872 208.906Z" fill="#66B0F0"/>
<path d="M562.783 283.308H0.635267C0.275282 283.308 0 283.036 0 282.679C0 282.322 0.275282 282.049 0.635267 282.049H562.783C563.143 282.049 563.418 282.322 563.418 282.679C563.418 283.036 563.143 283.308 562.783 283.308Z" fill="#3FB1B5"/>
<path d="M181.623 286.353V545.544H166.864V496.208C166.864 491.611 163.094 487.874 158.457 487.874H52.8121C48.1746 487.874 44.4054 491.611 44.4054 496.208V545.544H29.646V286.353H181.623Z" fill="white"/>
<path d="M182.258 546.174H166.228V496.208C166.228 491.968 162.734 488.504 158.457 488.504H52.8121C48.5346 488.504 45.0407 491.968 45.0407 496.208V546.174H29.0107V285.723H182.258V546.174ZM167.499 544.915H180.988V286.982H30.2813V544.915H43.7701V496.208C43.7701 491.275 47.8358 487.244 52.8121 487.244H158.457C163.433 487.244 167.499 491.275 167.499 496.208V544.915Z" fill="#3FB1B5"/>
<path d="M182.068 286.353V355.129L29.646 479.56L29.6672 286.353H182.068Z" fill="#D0F0E4"/>
<path d="M158.901 361.616H52.3883C47.645 361.616 43.791 357.795 43.791 353.093V306.087C43.791 301.384 47.645 297.563 52.3883 297.563H158.901C163.645 297.563 167.499 301.384 167.499 306.087V353.093C167.499 357.795 163.645 361.616 158.901 361.616ZM52.3883 298.823C48.3438 298.823 45.0615 302.077 45.0615 306.087V353.093C45.0615 357.102 48.3438 360.356 52.3883 360.356H158.901C162.946 360.356 166.228 357.102 166.228 353.093V306.087C166.228 302.077 162.946 298.823 158.901 298.823H52.3883Z" fill="#3FB1B5"/>
<path d="M132.728 396.592H80.2978L78.1167 381.707H130.569L132.728 396.592Z" fill="#FFCF2D"/>
<path d="M160.702 373.121C154.158 373.121 148.864 378.37 148.864 384.857V396.592H104.248V384.857C104.248 378.37 109.541 373.121 116.085 373.121H160.702Z" fill="white"/>
<path d="M149.5 397.222H103.612V384.857C103.612 378.034 109.203 372.491 116.085 372.491H160.702V373.751C154.518 373.751 149.5 378.726 149.5 384.857V397.222ZM104.883 395.963H148.229V384.857C148.229 379.986 151.088 375.766 155.217 373.751H116.085C109.901 373.751 104.883 378.726 104.883 384.857V395.963Z" fill="#3FB1B5"/>
<path d="M171.819 381.708H127.202C125.826 376.753 121.231 373.121 115.789 373.121H160.405C165.848 373.121 170.422 376.753 171.819 381.708Z" fill="white"/>
<path d="M172.666 382.337H126.737L126.61 381.876C125.276 377.089 120.829 373.751 115.81 373.751V372.491H160.427C165.996 372.491 170.951 376.207 172.455 381.54L172.666 382.337ZM127.668 381.078H170.951C169.363 376.732 165.128 373.751 160.406 373.751H121.273C124.259 375.199 126.631 377.824 127.668 381.078Z" fill="#3FB1B5"/>
<path d="M158.901 460.014H52.3883C47.645 460.014 43.791 456.194 43.791 451.491V404.485C43.791 399.783 47.645 395.962 52.3883 395.962H158.901C163.645 395.962 167.499 399.783 167.499 404.485V451.491C167.499 456.194 163.645 460.014 158.901 460.014ZM52.3883 397.222C48.3438 397.222 45.0615 400.476 45.0615 404.485V451.491C45.0615 455.501 48.3438 458.755 52.3883 458.755H158.901C162.946 458.755 166.228 455.501 166.228 451.491V404.485C166.228 400.476 162.946 397.222 158.901 397.222H52.3883Z" fill="#3FB1B5"/>
<path d="M127.477 329.285C127.117 329.285 126.842 329.012 126.842 328.655C126.842 325.254 124.068 322.504 120.637 322.504H90.6737C87.2433 322.504 84.4693 325.254 84.4693 328.655C84.4693 329.012 84.194 329.285 83.834 329.285C83.474 329.285 83.1987 329.012 83.1987 328.655C83.1987 324.561 86.5445 321.244 90.6737 321.244H120.637C124.766 321.244 128.112 324.561 128.112 328.655C128.112 329.012 127.837 329.285 127.477 329.285Z" fill="#3FB1B5"/>
<path d="M127.477 427.683C127.117 427.683 126.842 427.41 126.842 427.053C126.842 423.652 124.068 420.902 120.637 420.902H90.6737C87.2433 420.902 84.4693 423.652 84.4693 427.053C84.4693 427.41 84.194 427.683 83.834 427.683C83.474 427.683 83.1987 427.41 83.1987 427.053C83.1987 422.96 86.5445 419.643 90.6737 419.643H120.637C124.766 419.643 128.112 422.96 128.112 427.053C128.112 427.41 127.837 427.683 127.477 427.683Z" fill="#3FB1B5"/>
<path d="M540.4 286.353H524.667V546.111H540.4V286.353Z" fill="white"/>
<path d="M541.035 546.741H524.031V285.723H541.035V546.741ZM525.302 545.481H539.765V286.982H525.302V545.481Z" fill="#3FB1B5"/>
<path d="M601.365 546.741H273.017C272.657 546.741 272.381 546.468 272.381 546.111C272.381 545.754 272.657 545.481 273.017 545.481H601.365C601.725 545.481 602 545.754 602 546.111C602 546.468 601.725 546.741 601.365 546.741Z" fill="#3FB1B5"/>
<path d="M74.3267 247.053H64.8189C64.8189 247.053 51.2454 190.978 39.3235 189.151C27.4017 187.325 26.7876 208.907 26.7876 208.907C26.7876 208.907 26.9994 176.093 56.7934 180.586C86.6086 185.078 74.3267 247.053 74.3267 247.053Z" fill="white"/>
<path d="M74.8564 247.682H64.3322L64.2051 247.199C64.1628 247.052 60.7535 233.028 55.9467 218.983C47.9846 195.743 42.4578 190.263 39.2391 189.781C37.0369 189.445 35.0887 189.949 33.4794 191.292C27.8679 195.911 27.4444 208.801 27.4444 208.927L26.1738 208.906C26.1738 208.738 26.2162 204.896 27.4655 199.984C28.6302 195.428 31.0866 189.067 36.2322 184.7C41.4626 180.27 48.4082 178.675 56.9207 179.976C62.4264 180.795 66.8944 183.608 70.219 188.29C75.5552 195.827 77.9904 208.024 77.4187 224.589C76.9952 236.87 75.0047 247.073 74.9835 247.178L74.8564 247.682ZM65.3274 246.422H73.8188C74.2212 244.218 75.7882 235.149 76.1481 224.526C76.5293 213.336 75.6188 198.115 69.1814 189.025C66.0686 184.616 61.8758 181.992 56.7301 181.236C48.6199 180.018 41.992 181.509 37.058 185.687C35.5758 186.946 34.3052 188.395 33.2464 189.928C35.0464 188.668 37.1216 188.227 39.4509 188.584C44.6389 189.382 50.6104 199.501 57.1748 218.647C61.4735 231.223 64.671 243.819 65.3274 246.422Z" fill="#3FB1B5"/>
<path d="M70.1546 246.842C69.8158 246.842 69.5193 246.569 69.5193 246.212C68.8205 204.413 59.8844 189.654 52.5153 184.658C46.925 180.858 42.0334 182.579 41.9911 182.6C41.6523 182.726 41.2923 182.558 41.1652 182.222C41.0382 181.887 41.2076 181.53 41.5464 181.404C41.7793 181.32 47.0944 179.451 53.2353 183.608C57.9786 186.841 61.8538 192.762 64.7336 201.243C68.4394 212.16 70.4722 227.276 70.7898 246.191C70.7898 246.548 70.5146 246.842 70.1546 246.842Z" fill="#3FB1B5"/>
<path d="M100.224 246.213H55.5649V282.26H100.224V246.213Z" fill="#FE5244"/>
<path d="M109.626 264.246C106.788 265.464 103.4 265.317 100.245 263.952C97.9157 262.944 95.7135 261.286 93.9348 259.018C91.4784 255.869 89.8267 251.566 89.8267 246.212C89.8267 233.238 79.4083 225.092 75.1309 242.265C74.8344 243.462 74.5591 244.764 74.3262 246.212V246.17V246.086C74.3262 246.044 74.3262 245.981 74.3474 245.918V245.834C74.4321 244.764 74.7497 241.593 75.7238 237.773C76.4437 234.938 77.5237 231.789 79.133 228.871C79.9377 227.423 80.8694 226.037 81.9706 224.798C84.8081 221.565 88.7044 219.298 94.0194 219.298C103.803 219.298 110.96 230.719 113.692 242.097C116.084 251.986 115.11 261.874 109.626 264.246Z" fill="white"/>
<path d="M105.454 265.695C103.654 265.695 101.77 265.296 99.9911 264.519C97.4712 263.427 95.2055 261.664 93.4267 259.396C90.6527 255.848 89.1916 251.272 89.1916 246.212C89.1916 240.292 86.5658 233.616 82.6484 233.154C79.8108 232.818 77.3121 236.198 75.7451 242.412C75.4275 243.714 75.1734 244.973 74.9405 246.317L73.6699 246.212V246.086C73.6699 246.044 73.6699 245.939 73.6911 245.834V245.771C73.7758 244.596 74.1146 241.446 75.0887 237.605C75.9569 234.204 77.1215 231.159 78.5615 228.556C79.472 226.94 80.4249 225.554 81.4837 224.378C84.8083 220.578 89.0222 218.668 94.0196 218.668C104.184 218.668 111.532 230.362 114.306 241.95C115.534 247.052 115.873 252.069 115.238 256.079C114.539 260.593 112.675 263.595 109.88 264.813C108.525 265.401 107.021 265.695 105.454 265.695ZM82.2672 231.873C82.4578 231.873 82.6272 231.894 82.7966 231.915C87.0317 232.419 90.4621 238.843 90.4621 246.233C90.4621 251.02 91.8385 255.324 94.4431 258.662C96.0948 260.761 98.1912 262.398 100.499 263.406C103.527 264.708 106.767 264.813 109.372 263.7C114.115 261.643 115.619 252.846 113.078 242.286C111.659 236.345 109.139 230.865 106.005 226.856C102.469 222.342 98.3394 219.97 94.0196 219.97C89.4245 219.97 85.5282 221.754 82.4578 225.26C81.4625 226.394 80.552 227.674 79.705 229.228C78.6462 231.159 77.7356 233.322 76.9945 235.715C77.3545 235.127 77.7145 234.602 78.0956 234.141C79.5991 232.314 81.1237 231.873 82.2672 231.873Z" fill="#3FB1B5"/>
<path d="M107.36 265.275C107.043 265.275 106.767 265.044 106.725 264.708C103.633 235.925 96.5819 227.024 91.2245 224.631C86.4388 222.489 82.3943 225.282 82.3519 225.303C82.0766 225.512 81.6743 225.429 81.4625 225.156C81.2508 224.883 81.3355 224.484 81.6108 224.274C81.8013 224.148 86.2906 221.041 91.7327 223.476C95.3325 225.093 98.4665 228.746 101.029 234.372C104.247 241.405 106.577 251.566 107.974 264.561C108.017 264.897 107.763 265.212 107.403 265.254C107.403 265.275 107.381 265.275 107.36 265.275Z" fill="#3FB1B5"/>
<path d="M26.1518 208.906C26.1518 212.37 25.7495 225.618 38.4972 226.226C51.2449 226.835 52.5154 207.752 52.5154 207.752C52.5154 207.752 46.2474 190.872 39.323 189.151C27.6129 186.233 26.1518 208.906 26.1518 208.906Z" fill="#3FB1B5"/>
<path d="M89.8267 246.213H74.3262C77.9048 223.98 89.8267 232.336 89.8267 246.213Z" fill="#3FB1B5"/>
<path opacity="0.4" d="M353.06 82.9215V221.503C353.06 228.956 346.962 234.981 339.466 234.981H179.484C169.447 248.69 148.758 248.753 138.637 234.981L138.615 234.96C134.592 234.687 131.035 232.651 128.748 229.649L132.432 226.499L226.452 146.05L315.982 69.4434H339.466C346.962 69.4434 353.06 75.4896 353.06 82.9215Z" fill="white"/>
<path opacity="0.4" d="M109.626 264.876C106.81 266.136 103.4 265.947 100.245 264.582V282.259H67.2749L93.9561 259.439L100.266 254.043L105.073 249.928L114.369 242.098C117.08 253.56 115.576 262.168 109.626 264.876Z" fill="white"/>
<path d="M390.392 358.152V475.005H363.16L345.817 426.992L320.979 358.152H390.392Z" fill="#A0505A"/>
<path d="M320.979 358.152H390.392V395.669L329.237 381.015L320.979 358.152Z" fill="#73325A"/>
<path d="M391.027 475.635H362.716L344.653 425.627L346.135 426.425C346.177 426.446 349.693 428.314 356.85 429.238C363.457 430.099 374.637 430.288 390.244 426.362L391.027 426.173V475.635ZM363.605 474.375H389.757V427.789C374.299 431.589 363.203 431.358 356.575 430.498C351.768 429.868 348.591 428.839 346.919 428.167L363.605 474.375Z" fill="white"/>
<path d="M359.984 438.895C357.93 438.895 356.257 437.236 356.257 435.2C356.257 433.163 357.93 431.505 359.984 431.505C362.038 431.505 363.711 433.163 363.711 435.2C363.711 437.236 362.038 438.895 359.984 438.895ZM359.984 432.765C358.628 432.765 357.527 433.856 357.527 435.2C357.527 436.543 358.628 437.635 359.984 437.635C361.339 437.635 362.44 436.543 362.44 435.2C362.44 433.856 361.339 432.765 359.984 432.765Z" fill="white"/>
<path d="M374.723 448.783C372.669 448.783 370.996 447.125 370.996 445.089C370.996 443.052 372.669 441.394 374.723 441.394C376.777 441.394 378.449 443.052 378.449 445.089C378.449 447.125 376.777 448.783 374.723 448.783ZM374.723 442.653C373.367 442.653 372.266 443.745 372.266 445.089C372.266 446.432 373.367 447.524 374.723 447.524C376.078 447.524 377.179 446.432 377.179 445.089C377.179 443.745 376.078 442.653 374.723 442.653Z" fill="white"/>
<path d="M385.691 437.803C383.637 437.803 381.964 436.145 381.964 434.108C381.964 432.072 383.637 430.413 385.691 430.413C387.745 430.413 389.418 432.072 389.418 434.108C389.418 436.145 387.745 437.803 385.691 437.803ZM385.691 431.673C384.336 431.673 383.234 432.764 383.234 434.108C383.234 435.452 384.336 436.543 385.691 436.543C387.046 436.543 388.147 435.452 388.147 434.108C388.147 432.764 387.046 431.673 385.691 431.673Z" fill="white"/>
<path d="M381.35 460.288C379.296 460.288 377.623 458.63 377.623 456.593C377.623 454.557 379.296 452.898 381.35 452.898C383.404 452.898 385.077 454.557 385.077 456.593C385.077 458.63 383.404 460.288 381.35 460.288ZM381.35 454.158C379.995 454.158 378.894 455.25 378.894 456.593C378.894 457.937 379.995 459.029 381.35 459.029C382.705 459.029 383.806 457.937 383.806 456.593C383.806 455.25 382.705 454.158 381.35 454.158Z" fill="white"/>
<path d="M363.076 454.703C361.022 454.703 359.349 453.045 359.349 451.008C359.349 448.972 361.022 447.313 363.076 447.313C365.13 447.313 366.803 448.972 366.803 451.008C366.803 453.045 365.13 454.703 363.076 454.703ZM363.076 448.573C361.721 448.573 360.62 449.665 360.62 451.008C360.62 452.352 361.721 453.444 363.076 453.444C364.431 453.444 365.532 452.352 365.532 451.008C365.532 449.665 364.431 448.573 363.076 448.573Z" fill="white"/>
<path d="M368.116 471.499C366.062 471.499 364.389 469.841 364.389 467.804C364.389 465.768 366.062 464.109 368.116 464.109C370.17 464.109 371.842 465.768 371.842 467.804C371.842 469.841 370.17 471.499 368.116 471.499ZM368.116 465.369C366.76 465.369 365.659 466.461 365.659 467.804C365.659 469.148 366.76 470.24 368.116 470.24C369.471 470.24 370.572 469.148 370.572 467.804C370.572 466.461 369.471 465.369 368.116 465.369Z" fill="white"/>
<path d="M403.267 496.797L384.59 535.237C381.943 541.43 375.823 545.461 369.026 545.461H345.203C339.105 545.461 335.399 539.331 337.728 533.747L361.678 476.475C363.012 472.99 365.363 470.093 368.306 468.056C371.271 466.02 374.828 464.865 378.576 464.865C383.785 464.865 388.952 468.371 392.383 472.255L400.683 481.136C404.516 485.46 405.511 491.528 403.267 496.797Z" fill="#66B0F0"/>
<path d="M403.267 496.797L384.59 535.237C381.943 541.43 375.823 545.461 369.026 545.461H343.7C341.35 545.461 340.015 544.012 339.232 542.018H344.865C351.662 542.018 357.782 537.987 360.429 531.794L381.964 487.265C383.976 483.109 388.232 480.442 392.891 480.442C398.968 480.442 403.584 484.851 404.431 490.436C404.516 492.577 404.135 494.739 403.267 496.797Z" fill="white"/>
<path d="M369.026 546.09H343.7C341.349 546.09 339.634 544.789 338.639 542.249C338.554 542.06 338.596 541.829 338.702 541.661C338.829 541.493 339.02 541.388 339.232 541.388H344.864C351.408 541.388 357.295 537.525 359.836 531.542C359.836 531.542 359.836 531.521 359.857 531.521L381.392 486.992C383.51 482.626 388.02 479.812 392.891 479.812C399.01 479.812 404.135 484.242 405.067 490.351C405.067 490.372 405.067 490.393 405.067 490.414C405.151 492.682 404.749 494.928 403.86 497.049C403.86 497.049 403.86 497.07 403.838 497.07L385.162 535.489C382.409 541.934 376.077 546.09 369.026 546.09ZM340.227 542.648C341.032 544.138 342.154 544.831 343.7 544.831H369.026C375.569 544.831 381.456 540.968 383.997 534.985C383.997 534.985 383.997 534.964 384.018 534.964L402.695 496.545C403.5 494.613 403.881 492.577 403.796 490.498C402.949 485.04 398.375 481.072 392.891 481.072C388.507 481.072 384.442 483.612 382.536 487.538L361 532.046C358.247 538.491 351.916 542.648 344.864 542.648H340.227Z" fill="#66B0F0"/>
<path d="M398.968 479.288C396.723 478.07 394.013 477.188 391.641 477.188C387.089 477.188 382.875 479.813 380.905 483.885L358.607 529.988C355.77 536.643 349.206 540.947 341.9 540.947H337.792C337.58 540.548 337.432 540.128 337.284 539.687H341.9C348.697 539.687 354.796 535.678 357.443 529.484L357.464 529.463L379.783 483.34C381.964 478.826 386.623 475.929 391.663 475.929C393.272 475.929 395.199 476.454 396.851 477.02L398.968 479.288Z" fill="white"/>
<path d="M320.979 358.153L315.664 426.992L313.292 457.832C313.292 457.832 297.813 474.921 280.194 464.382L272.042 427.013L253.386 341.504C248.346 318.39 264.27 295.905 287.924 292.777L320.979 358.153Z" fill="#A0505A"/>
<path d="M292.116 469.274C288.326 469.274 284.154 468.329 279.877 465.768L279.644 465.621L271.216 426.11L272.232 426.425C292.285 432.388 315.282 426.467 315.515 426.404L316.383 426.173L313.927 458.945L313.779 459.113C313.609 459.281 309.755 463.501 303.636 466.482C300.565 467.951 296.584 469.274 292.116 469.274ZM280.766 464.823C287.796 468.938 295.292 469.106 303.043 465.348C308.294 462.787 311.936 459.176 312.677 458.399L314.964 427.811C313.037 428.252 308.04 429.322 301.581 429.91C294.149 430.603 283.244 430.771 272.868 427.916L280.766 464.823Z" fill="white"/>
<path d="M291.332 446.663C289.278 446.663 287.605 445.005 287.605 442.968C287.605 440.932 289.278 439.273 291.332 439.273C293.386 439.273 295.059 440.932 295.059 442.968C295.059 445.005 293.386 446.663 291.332 446.663ZM291.332 440.533C289.977 440.533 288.876 441.625 288.876 442.968C288.876 444.312 289.977 445.404 291.332 445.404C292.688 445.404 293.789 444.312 293.789 442.968C293.789 441.625 292.688 440.533 291.332 440.533Z" fill="white"/>
<path d="M310.983 441.961C308.929 441.961 307.256 440.303 307.256 438.266C307.256 436.23 308.929 434.571 310.983 434.571C313.037 434.571 314.71 436.23 314.71 438.266C314.71 440.303 313.037 441.961 310.983 441.961ZM310.983 435.831C309.628 435.831 308.527 436.923 308.527 438.266C308.527 439.61 309.628 440.702 310.983 440.702C312.339 440.702 313.44 439.61 313.44 438.266C313.44 436.923 312.339 435.831 310.983 435.831Z" fill="white"/>
<path d="M279.474 437.804C277.42 437.804 275.747 436.145 275.747 434.109C275.747 432.073 277.42 430.414 279.474 430.414C281.528 430.414 283.201 432.073 283.201 434.109C283.201 436.145 281.528 437.804 279.474 437.804ZM279.474 431.674C278.119 431.674 277.018 432.765 277.018 434.109C277.018 435.453 278.119 436.544 279.474 436.544C280.829 436.544 281.93 435.453 281.93 434.109C281.93 432.765 280.829 431.674 279.474 431.674Z" fill="white"/>
<path d="M288.241 463.354C286.187 463.354 284.514 461.695 284.514 459.659C284.514 457.622 286.187 455.964 288.241 455.964C290.295 455.964 291.968 457.622 291.968 459.659C291.968 461.695 290.295 463.354 288.241 463.354ZM288.241 457.224C286.886 457.224 285.785 458.315 285.785 459.659C285.785 461.002 286.886 462.094 288.241 462.094C289.596 462.094 290.697 461.002 290.697 459.659C290.697 458.315 289.596 457.224 288.241 457.224Z" fill="white"/>
<path d="M302.661 457.223C300.607 457.223 298.935 455.564 298.935 453.528C298.935 451.492 300.607 449.833 302.661 449.833C304.715 449.833 306.388 451.492 306.388 453.528C306.388 455.564 304.715 457.223 302.661 457.223ZM302.661 451.093C301.306 451.093 300.205 452.184 300.205 453.528C300.205 454.872 301.306 455.963 302.661 455.963C304.017 455.963 305.118 454.872 305.118 453.528C305.118 452.184 304.017 451.093 302.661 451.093Z" fill="white"/>
<path d="M333.705 465.18L313.292 546.112H306.855C306.558 546.112 306.283 546.091 305.986 546.07C301.116 545.629 297.008 541.557 295.97 536.749L280.173 464.341C297.791 474.901 313.292 457.812 313.292 457.812L333.705 465.18Z" fill="#66B0F0"/>
<path d="M334.743 506.707C339.041 484.202 340.227 467.008 332.816 465.622C325.404 464.237 312.212 479.163 307.913 501.669C303.615 524.174 305.859 544.077 313.271 545.462C320.682 546.869 330.444 529.234 334.743 506.707Z" fill="white"/>
<path d="M314.118 546.176C313.8 546.176 313.461 546.155 313.143 546.092C309.29 545.378 306.6 540.213 305.563 531.564C304.567 523.229 305.181 512.564 307.278 501.564C309.268 491.172 313.313 481.493 318.67 474.313C323.583 467.742 328.919 464.257 332.921 465.013C336.775 465.727 338.681 470.052 338.787 478.239C338.872 484.915 337.749 494.258 335.357 506.833C333.663 515.692 331.1 524.027 327.945 530.934C324.832 537.757 321.423 542.544 318.098 544.79C316.743 545.693 315.409 546.176 314.118 546.176ZM331.82 466.168C328.432 466.168 323.879 469.485 319.708 475.069C314.456 482.102 310.496 491.591 308.527 501.794C306.452 512.69 305.838 523.208 306.812 531.417C307.765 539.353 310.158 544.244 313.376 544.853C314.605 545.084 315.96 544.706 317.4 543.74C323.901 539.353 330.783 524.09 334.107 506.602C336.5 494.132 337.601 484.852 337.516 478.26C337.432 470.87 335.801 466.839 332.688 466.252C332.413 466.189 332.117 466.168 331.82 466.168Z" fill="#66B0F0"/>
<path d="M304.948 501.311C302.725 512.984 302.069 524.257 303.127 533.075C303.89 539.415 305.499 543.929 307.701 546.112H306.854C306.558 546.112 306.282 546.091 305.986 546.07C303.996 543.467 302.577 539.1 301.857 533.222C300.777 524.299 301.433 512.879 303.699 501.08C305.838 489.911 310.158 479.435 315.896 471.563C319.327 466.86 322.926 463.564 326.209 462.073L328.114 462.703C320.555 464.928 309.078 479.708 304.948 501.311Z" fill="white"/>
<path d="M287.924 292.757L384.527 282.89L481.088 309.741L480.262 322.463C478.949 342.534 461.5 358.153 441.214 358.153H321.001L287.924 292.757Z" fill="#FE5244"/>
<path d="M436.957 349.967H316.744C316.384 349.967 316.108 349.694 316.108 349.337C316.108 348.98 316.384 348.707 316.744 348.707H436.957C446.147 348.707 455.782 343.899 463.406 335.481C470.626 327.503 474.946 317.531 474.946 308.818C474.946 308.461 475.222 308.188 475.582 308.188C475.942 308.188 476.217 308.461 476.217 308.818C476.217 317.846 471.77 328.133 464.358 336.341C456.481 344.991 446.507 349.967 436.957 349.967Z" fill="white"/>
<path d="M427.492 339.47H311.874C311.514 339.47 311.238 339.197 311.238 338.84C311.238 338.483 311.514 338.21 311.874 338.21H427.492C435.518 338.21 443.818 334.473 450.828 327.671C457.413 321.289 462.029 313.059 463.491 305.082C463.554 304.746 463.893 304.515 464.232 304.578C464.571 304.641 464.803 304.977 464.74 305.313C461.754 321.457 445.724 339.47 427.492 339.47Z" fill="white"/>
<path d="M417.306 328.762H305.732C305.372 328.762 305.097 328.489 305.097 328.132C305.097 327.775 305.372 327.502 305.732 327.502H417.306C432.553 327.502 445.788 313.898 450.51 301.113C450.637 300.777 450.997 300.609 451.314 300.735C451.653 300.861 451.823 301.218 451.696 301.533C449.07 308.65 444.326 315.347 438.313 320.386C431.769 325.865 424.506 328.762 417.306 328.762Z" fill="white"/>
<path d="M411.801 317.216H300.227C299.867 317.216 299.592 316.943 299.592 316.586C299.592 316.229 299.867 315.956 300.227 315.956H411.801C422.304 315.956 433.315 309.175 440.557 298.279C440.748 297.985 441.15 297.901 441.447 298.09C441.743 298.279 441.828 298.678 441.637 298.972C434.141 310.225 422.728 317.216 411.801 317.216Z" fill="white"/>
<path d="M406.507 306.718H294.933C294.573 306.718 294.298 306.446 294.298 306.089C294.298 305.732 294.573 305.459 294.933 305.459H406.507C414.596 305.459 422.749 301.764 429.462 295.067C429.716 294.815 430.118 294.815 430.351 295.067C430.605 295.319 430.605 295.718 430.351 295.949C423.405 302.898 414.935 306.718 406.507 306.718Z" fill="white"/>
<path d="M400.79 296.012H289.216C288.856 296.012 288.581 295.739 288.581 295.382C288.581 295.025 288.856 294.752 289.216 294.752H400.79C405.554 294.752 410.34 293.409 415.041 290.784C415.337 290.616 415.74 290.721 415.909 291.015C416.079 291.309 415.973 291.708 415.676 291.876C410.785 294.626 405.766 296.012 400.79 296.012Z" fill="white"/>
<path d="M320.768 358.783C320.535 358.783 320.302 358.657 320.196 358.427L287.141 293.03C286.992 292.715 287.12 292.337 287.416 292.19C287.734 292.044 288.115 292.169 288.263 292.463L321.318 357.86C321.466 358.175 321.339 358.553 321.043 358.699C320.958 358.762 320.873 358.783 320.768 358.783Z" fill="white"/>
<path d="M486.381 222.112C477.276 224.673 468.318 223.918 467.365 221.167C466.476 218.543 470.499 214.05 478.652 211.069C479.054 210.922 479.478 210.775 479.901 210.628C482.358 209.81 484.814 209.285 487.122 209.012C493.962 208.151 499.531 209.369 500.23 211.426C501.183 214.176 496.016 219.404 486.381 222.112Z" fill="white"/>
<path d="M475.539 224.316C470.923 224.316 467.429 223.288 466.751 221.377C465.608 218.018 470.626 213.337 478.419 210.481C478.821 210.334 479.245 210.188 479.668 210.041H479.69C482.082 209.243 484.56 208.697 487.037 208.403C494.047 207.521 499.976 208.739 500.823 211.237C501.119 212.056 500.971 213.064 500.42 214.113C498.642 217.472 493.2 220.873 486.55 222.742C482.718 223.792 478.843 224.316 475.539 224.316ZM491.463 209.369C490.171 209.369 488.753 209.453 487.207 209.642C484.814 209.936 482.421 210.46 480.113 211.237C479.69 211.384 479.266 211.531 478.885 211.678C475.2 213.022 472.066 214.806 470.076 216.717C468.403 218.312 467.62 219.908 467.98 220.978C468.678 223.015 476.831 224.149 486.212 221.524C491.4 220.076 497.456 217.032 499.298 213.526C499.679 212.791 499.806 212.14 499.637 211.636C499.256 210.523 496.249 209.369 491.463 209.369Z" fill="#3FB1B5"/>
<path d="M480.621 283.33H477.127L467.958 221.965V221.923L467.725 220.39C468.17 217.598 472.574 213.651 480.346 211.09C484.221 209.81 488.075 209.243 491.357 209.18L494.703 218.27L495.02 219.131L505.608 247.914C511.961 265.108 499.107 283.33 480.621 283.33Z" fill="#A0505A"/>
<path d="M494.914 218.921C492.691 220.307 489.811 221.587 486.381 222.553C478.503 224.757 470.52 223.854 467.958 221.965V221.923L467.725 220.39C468.17 217.598 472.574 213.651 480.346 211.09C484.221 209.81 488.075 209.243 491.357 209.18L494.914 218.921Z" fill="#73325A"/>
<path d="M367.205 232.84L356.088 260.258C350.603 273.799 337.347 282.679 322.609 282.679H173.173V269.117C173.173 265.842 175.206 262.903 178.298 261.748L193.65 255.975C195.048 255.45 196.509 255.177 197.991 255.177H215.419L314.054 245.31L331.079 206.66L367.205 232.84Z" fill="#A0505A"/>
<path d="M173.809 274.849C173.449 274.849 173.173 274.576 173.173 274.219C173.173 271.469 174.846 269.054 177.451 268.068L189.034 263.722C189.351 263.596 189.733 263.764 189.86 264.079C189.987 264.394 189.817 264.771 189.5 264.897L177.917 269.243C175.82 270.041 174.444 271.993 174.444 274.219C174.444 274.576 174.169 274.849 173.809 274.849Z" fill="#73325A"/>
<path d="M173.809 281.776C173.449 281.776 173.173 281.503 173.173 281.146C173.173 278.396 174.846 275.982 177.451 274.995L189.034 270.649C189.351 270.524 189.733 270.691 189.86 271.006C189.987 271.321 189.817 271.699 189.5 271.825L177.917 276.171C175.82 276.969 174.444 278.921 174.444 281.146C174.444 281.503 174.169 281.776 173.809 281.776Z" fill="#73325A"/>
<path d="M177.683 282.68C177.429 282.68 177.175 282.512 177.091 282.26C176.963 281.924 177.133 281.567 177.472 281.462L189.055 277.326C189.394 277.2 189.754 277.368 189.859 277.704C189.986 278.04 189.817 278.397 189.478 278.502L177.895 282.638C177.832 282.659 177.747 282.68 177.683 282.68Z" fill="#73325A"/>
<path d="M188.06 258.305C188.06 258.305 198.901 230.866 202.374 231.328C205.847 231.79 192.761 256.542 192.761 256.542L188.06 258.305Z" fill="#FE5244"/>
<path d="M331.079 206.682L328.581 212.329L360.577 249.173L367.205 232.84L331.079 206.682Z" fill="#73325A"/>
<path d="M467.958 221.985L481.087 309.74L384.548 282.889L367.205 232.818L322.44 200.383L338.152 181.824C352.17 165.26 372.859 155.687 394.67 155.687H425.692C452.67 155.687 477.509 170.298 490.447 193.77L500.505 211.027C500.505 211.027 497.477 206.618 481.151 211.048C466.773 214.974 467.958 221.985 467.958 221.985Z" fill="#3FB1B5"/>
<path d="M367.205 233.049C367.163 233.049 367.099 233.049 367.057 233.028C366.718 232.944 366.506 232.608 366.591 232.272L371.61 210.69C371.694 210.354 372.033 210.145 372.372 210.228C372.711 210.312 372.922 210.648 372.838 210.984L367.819 232.566C367.756 232.86 367.502 233.049 367.205 233.049Z" fill="white"/>
<path d="M478.652 289.88C478.355 289.88 478.08 289.67 478.017 289.355L461.69 188.731C461.627 188.395 461.86 188.059 462.22 188.017C462.558 187.954 462.897 188.185 462.939 188.542L479.266 289.166C479.329 289.502 479.097 289.838 478.737 289.88C478.715 289.88 478.694 289.88 478.652 289.88Z" fill="white"/>
<path d="M480.876 310.37C480.812 310.37 480.77 310.37 480.706 310.349L384.357 283.099C384.019 282.994 383.828 282.658 383.913 282.322C384.018 281.986 384.357 281.797 384.696 281.881L481.045 309.131C481.384 309.236 481.574 309.572 481.49 309.908C481.405 310.181 481.151 310.37 480.876 310.37Z" fill="white"/>
<path d="M389.735 141.662V155.77L414.85 155.56V130.661L389.735 141.662Z" fill="#A0505A"/>
<path d="M416.883 126.316V126.694C416.883 130.473 414.003 133.538 410.191 133.538H408.709C407.756 137.275 399.286 141.642 393.272 141.642H386.263C378.597 141.642 372.732 134.819 373.981 127.303L374.32 125.266L372.245 124.112C371.059 123.44 370.72 121.907 371.546 120.816L376.035 114.937L377.009 109.143C377.793 104.377 380.948 100.493 385.14 98.583C386.792 117.037 403.224 119.22 407.565 119.472H409.979C413.791 119.472 416.883 122.537 416.883 126.316Z" fill="#A0505A"/>
<path d="M405.766 128.752C405.406 128.752 405.13 128.479 405.13 128.122C405.13 124.805 407.862 122.097 411.208 122.097C411.568 122.097 411.843 122.37 411.843 122.727C411.843 123.083 411.568 123.356 411.208 123.356C408.561 123.356 406.401 125.498 406.401 128.122C406.401 128.479 406.126 128.752 405.766 128.752Z" fill="#73325A"/>
<path d="M382.811 119.661C383.408 119.661 383.891 118.552 383.891 117.183C383.891 115.815 383.408 114.706 382.811 114.706C382.215 114.706 381.731 115.815 381.731 117.183C381.731 118.552 382.215 119.661 382.811 119.661Z" fill="#73325A"/>
<path d="M387.216 114.055C387.025 114.055 386.834 113.971 386.707 113.804C383.891 109.941 381.265 110.151 381.223 110.151C380.863 110.193 380.566 109.941 380.524 109.584C380.482 109.248 380.736 108.933 381.096 108.891C381.223 108.87 384.484 108.618 387.724 113.048C387.936 113.321 387.872 113.72 387.576 113.93C387.47 114.013 387.343 114.055 387.216 114.055Z" fill="#73325A"/>
<path d="M407.566 119.472H409.98C413.791 119.472 416.883 122.537 416.883 126.316V126.694C416.883 130.473 414.003 133.538 410.191 133.538L408.561 134.672C401.7 139.038 392.213 156.211 394.543 168.367C397.168 182.034 409.175 185.078 420.271 182.979C431.367 180.879 439.456 174.476 436.83 160.788C436.534 159.172 436.047 157.555 435.433 155.96C435.623 156.022 435.793 156.085 435.983 156.148C449.324 159.759 464.994 160.179 469.314 149.85C473.633 139.521 472.659 129.297 459.679 123.965C452.14 120.858 441.891 120.879 433.95 123.02C437.953 109.227 430.838 93.8803 417.772 92.3477C397.253 89.9334 385.479 98.331 385.162 98.562C385.141 100.997 386.813 118.275 407.566 119.472Z" fill="#73325A"/>
<path d="M435.983 156.799C435.687 156.799 435.411 156.59 435.369 156.296C433.124 144.644 423.511 138.22 423.405 138.157C423.235 138.052 423.129 137.842 423.129 137.632C423.129 137.422 423.235 137.233 423.405 137.107C429.969 132.509 432.807 125.875 433.908 122.348C434.014 122.012 434.374 121.823 434.691 121.928C435.03 122.033 435.221 122.39 435.115 122.705C434.014 126.274 431.219 132.824 424.845 137.611C427.238 139.395 434.628 145.652 436.618 156.044C436.682 156.38 436.449 156.715 436.11 156.778C436.068 156.799 436.025 156.799 435.983 156.799Z" fill="white"/>
<path d="M440.24 122.705H434.628C434.268 122.705 433.993 122.432 433.993 122.075V116.512C433.993 113.258 436.661 110.612 439.944 110.612H440.24C443.522 110.612 446.19 113.258 446.19 116.512V116.806C446.212 118.359 445.597 119.85 444.475 120.962C443.353 122.075 441.849 122.705 440.24 122.705ZM435.264 121.445H440.24C441.511 121.445 442.675 120.962 443.565 120.06C444.433 119.178 444.92 118.023 444.92 116.806V116.512C444.92 113.95 442.823 111.872 440.24 111.872H439.944C437.36 111.872 435.264 113.95 435.264 116.512V121.445Z" fill="#FE5244"/>
<path d="M443.374 131.228C441.108 131.228 438.927 130.137 437.635 128.121L434.035 122.453C433.845 122.159 433.929 121.76 434.226 121.592L439.943 118.023C441.468 117.078 443.289 116.763 445.047 117.162C446.804 117.561 448.308 118.611 449.282 120.122L449.621 120.647C450.595 122.159 450.891 123.964 450.489 125.707C450.087 127.449 449.028 128.94 447.503 129.906L446.974 130.241C445.873 130.892 444.623 131.228 443.374 131.228ZM435.454 122.306L438.715 127.449C440.325 129.969 443.734 130.724 446.317 129.129L446.847 128.793C448.096 128.016 448.943 126.819 449.261 125.392C449.578 123.964 449.324 122.516 448.541 121.277L448.202 120.752C447.418 119.514 446.211 118.674 444.771 118.359C443.331 118.044 441.87 118.296 440.621 119.073L435.454 122.306Z" fill="#FE5244"/>
<path d="M408.688 148.023C408.54 148.023 408.391 148.023 408.243 148.002C406.655 147.876 405.215 147.162 404.177 145.966L403.987 145.735C402.949 144.559 402.441 143.047 402.547 141.494C402.653 139.919 403.373 138.471 404.58 137.442L408.561 133.663C408.688 133.537 408.857 133.474 409.027 133.495C409.196 133.495 409.365 133.579 409.471 133.705L413.389 138.093C414.426 139.29 414.956 140.822 414.829 142.397C414.702 143.971 413.982 145.399 412.775 146.427L412.521 146.616C411.483 147.519 410.128 148.023 408.688 148.023ZM408.984 135.007L405.469 138.345L405.448 138.366C404.495 139.185 403.923 140.318 403.839 141.578C403.754 142.817 404.156 143.992 404.961 144.916C404.961 144.916 404.961 144.937 404.982 144.937L405.173 145.168C405.977 146.092 407.1 146.658 408.349 146.763C409.598 146.847 410.805 146.448 411.758 145.651L412.012 145.441C412.944 144.643 413.516 143.53 413.622 142.292C413.706 141.053 413.304 139.856 412.499 138.912L408.984 135.007Z" fill="#FE5244"/>
<path d="M416.798 145.714C413.834 145.714 411.102 143.762 410.255 140.802L408.455 134.356C408.37 134.021 408.561 133.685 408.9 133.58L415.401 131.795C417.137 131.312 418.958 131.543 420.525 132.404C422.092 133.286 423.236 134.713 423.723 136.435L423.892 137.044C424.379 138.765 424.146 140.571 423.278 142.124C422.389 143.678 420.949 144.811 419.212 145.294L418.598 145.462C417.984 145.651 417.391 145.714 416.798 145.714ZM411.483 140.466C412.309 143.342 415.337 145.063 418.238 144.266L418.852 144.098C420.271 143.699 421.436 142.796 422.156 141.536C422.876 140.277 423.045 138.807 422.664 137.401L422.494 136.792C422.092 135.385 421.182 134.23 419.911 133.517C418.641 132.803 417.158 132.635 415.739 133.013L409.853 134.629L411.483 140.466Z" fill="#FE5244"/>
<path d="M316.193 546.09C316.15 546.09 316.108 546.09 316.066 546.069C315.727 546.006 315.494 545.671 315.579 545.314L352.466 374.15C352.53 373.814 352.869 373.583 353.229 373.667C353.568 373.73 353.8 374.066 353.716 374.422L316.807 545.587C316.743 545.88 316.489 546.09 316.193 546.09Z" fill="#FFCF2D"/>
<path d="M484.369 546.091C484.073 546.091 483.818 545.881 483.755 545.587L446.867 374.423C446.804 374.087 447.015 373.751 447.354 373.667C447.693 373.604 448.032 373.814 448.117 374.15L485.004 545.314C485.068 545.65 484.856 545.986 484.517 546.07C484.454 546.091 484.411 546.091 484.369 546.091Z" fill="#FFCF2D"/>
<path d="M475.687 508.092H324.367C324.007 508.092 323.731 507.819 323.731 507.462C323.731 507.105 324.007 506.832 324.367 506.832H475.687C476.047 506.832 476.322 507.105 476.322 507.462C476.322 507.819 476.047 508.092 475.687 508.092Z" fill="#FFCF2D"/>
<path d="M476.512 374.297H324.027C322.1 374.297 320.533 372.743 320.533 370.833V361.616C320.533 359.706 322.1 358.152 324.027 358.152H476.512C478.439 358.152 480.006 359.706 480.006 361.616V370.833C480.006 372.743 478.439 374.297 476.512 374.297Z" fill="white"/>
<path d="M476.512 374.927H324.027C321.74 374.927 319.898 373.1 319.898 370.833V361.616C319.898 359.349 321.74 357.522 324.027 357.522H476.512C478.799 357.522 480.642 359.349 480.642 361.616V370.833C480.642 373.1 478.799 374.927 476.512 374.927ZM324.027 358.782C322.46 358.782 321.168 360.063 321.168 361.616V370.833C321.168 372.386 322.46 373.667 324.027 373.667H476.512C478.079 373.667 479.371 372.386 479.371 370.833V361.616C479.371 360.063 478.079 358.782 476.512 358.782H324.027Z" fill="#66B0F0"/>
</svg>
